<svg xmlns="http://www.w3.org/2000/svg" xmlns:xlink="http://www.w3.org/1999/xlink" width="314.202" height="96.797" viewBox="0 0 314.202 96.797">
  <defs>
    <clipPath id="clip-path">
      <rect width="314.202" height="96.797" fill="none"/>
    </clipPath>
    <clipPath id="clip-path-2">
      <path id="Path_237" data-name="Path 237" d="M161.421-75.738q-8.958,0-13.7,2.261t-4.74,6a8.017,8.017,0,0,0,.13,1.478,4.171,4.171,0,0,0,.3,1.044q1.652,1.826,6.175,1.826a16.639,16.639,0,0,0,10.175-3.218,20.313,20.313,0,0,0,6.7-9.219Q163.16-75.738,161.421-75.738ZM383.548-114.7a10.48,10.48,0,0,1,7.871,3.087,11.529,11.529,0,0,1,3,8.393,13.555,13.555,0,0,1-5.61,11.437q-5.61,4.218-15.176,4.218-6.958,0-10.784-2.348a7.362,7.362,0,0,1-3.827-6.61,6.836,6.836,0,0,1,2.261-5.392,9.126,9.126,0,0,1,6.262-2,8.766,8.766,0,0,1,5.827,1.826,6.039,6.039,0,0,1,2.174,4.87,5.181,5.181,0,0,1-.087,1.131A9.022,9.022,0,0,0,372.633-98a8.148,8.148,0,0,0-3.261-.7,4.19,4.19,0,0,0-2.479.652,2.075,2.075,0,0,0-.913,1.783,2.667,2.667,0,0,0,1.913,2.479,14.015,14.015,0,0,0,5.392.826q6.436,0,10.219-2.783a8.9,8.9,0,0,0,3.783-7.566q0-8.523-11.045-8.871A10.868,10.868,0,0,1,383.548-114.7ZM159.16-129.833a4.187,4.187,0,0,1,2.957,1.044,3.713,3.713,0,0,1,1.131,2.87,6.424,6.424,0,0,1-.261,1.652l-7.045,28.352a23.183,23.183,0,0,0,9.349-3.74,46.6,46.6,0,0,0,9.523-8.088l4.7-18.785a4.122,4.122,0,0,1,4.435-3.3q2.87,0,2.87,2.174a7.635,7.635,0,0,1-.174,1.131L174.9-79.565a5.274,5.274,0,0,1-.435,1.478,43.88,43.88,0,0,1,10.523,6.349q-2.261-1.652-11.567-3.131-3.218,8.523-9,13a21.715,21.715,0,0,1-13.7,4.479,19.1,19.1,0,0,1-8.132-1.565A14.655,14.655,0,0,1,136.808-64a12.791,12.791,0,0,1-.957-4.87A9.349,9.349,0,0,1,138.5-75.39a17.47,17.47,0,0,1,7.523-4.479,35.753,35.753,0,0,1,11.219-1.609,47.674,47.674,0,0,1,10.7,1.218l4.783-19.133a58.993,58.993,0,0,1-9.262,8q-4.392,2.957-7.088,2.957a7.012,7.012,0,0,1-3.3-1,9.253,9.253,0,0,1-3.044-2.653,5.661,5.661,0,0,1-1.218-3.392,4.888,4.888,0,0,1,.174-1.131l6.262-25.4a2.262,2.262,0,0,0,.087-.7,1.562,1.562,0,0,0-.478-1.218,1.8,1.8,0,0,0-1.261-.435q-3.044,0-7.914,3.218a36.966,36.966,0,0,1,7.132-6.349A11.958,11.958,0,0,1,159.16-129.833Zm221.78-.348a15.427,15.427,0,0,1,9.088,2.653,14.216,14.216,0,0,1,5.349,7.088,19.132,19.132,0,0,0-12-4.175q-5.044,0-7.871,2.174a7.062,7.062,0,0,0-2.827,5.914,7.79,7.79,0,0,0,3,6.349,14.113,14.113,0,0,0,8.132,2.783,10.516,10.516,0,0,1-7.045,2.435,10.994,10.994,0,0,1-8.132-3.087,10.994,10.994,0,0,1-3.087-8.132,13.274,13.274,0,0,1,2.044-7.349,13.672,13.672,0,0,1,5.566-4.914A17.336,17.336,0,0,1,380.939-130.181Zm-43.8,0a24.436,24.436,0,0,1,11.393,2.566,18.269,18.269,0,0,1,7.566,7,33.693,33.693,0,0,0-7.436-2.827,32.358,32.358,0,0,0-7.958-1q-9.48,0-14.785,5.827t-5.305,16a46.911,46.911,0,0,0,.522,6.784,12.561,12.561,0,0,0,2.522,1.913,5.81,5.81,0,0,0,2.783.609q4.436,0,8.61-4.175a41.6,41.6,0,0,0,7.74-11.741l1.652-6.523a4.015,4.015,0,0,1,4.348-3.392q2.87,0,2.87,2.261a7.635,7.635,0,0,1-.174,1.131l-4.957,20a3.046,3.046,0,0,0-.174.957q0,1.392,1.913,1.392,3.044,0,7.914-3.218a36.965,36.965,0,0,1-7.132,6.349,11.958,11.958,0,0,1-6.349,2.348,4,4,0,0,1-2.957-1.044,3.878,3.878,0,0,1-1.044-2.87,6.246,6.246,0,0,1,.174-1.652l.87-3.392Q333.4-87.566,326.1-87.566a10.136,10.136,0,0,1-6.523-2.3,23.6,23.6,0,0,1-5.392-6.653,40.666,40.666,0,0,1-.87-7.914,29.6,29.6,0,0,1,2.957-13.567,21.444,21.444,0,0,1,8.349-9A24.225,24.225,0,0,1,337.142-130.181Zm-44.663,0a18.485,18.485,0,0,1,8.306,1.87,13.226,13.226,0,0,1,5.7,5.088,26.112,26.112,0,0,1,1.044,7.827,12.448,12.448,0,0,1-3.827,9.567q-3.827,3.566-10.349,3.566a18.33,18.33,0,0,1-9.262-2.218A10.574,10.574,0,0,1,279-110.439a14.274,14.274,0,0,0,5.218,2.044,34.719,34.719,0,0,0,7.392.739,9.1,9.1,0,0,0,6.523-2.3,8.046,8.046,0,0,0,2.435-6.131,19.531,19.531,0,0,0-.7-5.218,10.988,10.988,0,0,0-3.348-2.261,9.662,9.662,0,0,0-3.957-.87,15.484,15.484,0,0,0-12.828,6q-4.74,6-4.74,16.263a36.554,36.554,0,0,0,.435,5.653q3.74,3.218,10.262,3.218a26.854,26.854,0,0,0,10.219-2,21.235,21.235,0,0,0,7.958-5.392,30.952,30.952,0,0,1-9.088,9.567,19.112,19.112,0,0,1-10.654,3.566,16.458,16.458,0,0,1-9.393-2.87,16.662,16.662,0,0,1-6.175-7.305,23.056,23.056,0,0,1-.87-6.523,29.357,29.357,0,0,1,3.044-13.7,21.538,21.538,0,0,1,8.653-9.045A26.127,26.127,0,0,1,292.478-130.181Zm-81.968-8.7q2.87,0,2.87,2.261a7.638,7.638,0,0,1-.174,1.131l-1.565,6.175h8.175l-1.392,5.566h-8.175l-6.958,28a3.047,3.047,0,0,0-.174.957q0,1.392,1.913,1.392,3.044,0,7.914-3.218a36.966,36.966,0,0,1-7.132,6.349,11.958,11.958,0,0,1-6.349,2.348,4.187,4.187,0,0,1-2.957-1.044,3.713,3.713,0,0,1-1.131-2.87,5.753,5.753,0,0,1,.261-1.652l7.479-30.266H195.9l1.392-5.566h7.219l1.565-6.175a4.5,4.5,0,0,1,1.565-2.522A4.57,4.57,0,0,1,210.51-138.878Zm-84.547-5.392q-10.436,0-16.916,4.783t-7.61,13.741q5.392-3.392,12.263-11.393h2.783l-6.61,26.526a39.836,39.836,0,0,0,14.915-3.957,27.768,27.768,0,0,0,10.7-9.045,22.1,22.1,0,0,0,3.957-12.915,12.948,12.948,0,0,0-.522-3.566,14.151,14.151,0,0,0-5-3.218A24.9,24.9,0,0,0,125.963-144.27Zm1.479-5.914A26.668,26.668,0,0,1,138.7-148.1a16,16,0,0,1,7.088,6.436,14.259,14.259,0,0,1,1.131,5.566,26.559,26.559,0,0,1-5.218,15.742A37.773,37.773,0,0,1,128.094-108.7a37.606,37.606,0,0,1-17.524,4.348,20.514,20.514,0,0,1-2.261-.087l-2,8a30.924,30.924,0,0,0-1.131,6.784,3.855,3.855,0,0,0,.174,1.218H95.611a8.7,8.7,0,0,0,1.522-2.7q.565-1.565,1.522-5.305l2.435-9.48q-6-2.348-7.392-7.653a20.16,20.16,0,0,0,8.523,2.957l1.565-6.088a56.251,56.251,0,0,1,2.261-7.305l-.261-.174a19.746,19.746,0,0,1-4.435,3.827q.174,2.522.348,3.566-1.565-2.435-1.739-2.783a20.393,20.393,0,0,1-10.089,2.783,9.722,9.722,0,0,1-6.392-1.913,6.327,6.327,0,0,1-2.3-5.131,10.883,10.883,0,0,1,1.218-5,10.186,10.186,0,0,1,3.392-3.87,8.191,8.191,0,0,1,4.7-1.478,4.707,4.707,0,0,1,3.479,1.218,4.238,4.238,0,0,1,1.218,3.131,6.564,6.564,0,0,1-.087,1.218,2.96,2.96,0,0,0-2.7-1.739,3.746,3.746,0,0,0-2.87,1.218,4.3,4.3,0,0,0-1.131,3.044,2.771,2.771,0,0,0,1.174,2.348,5.549,5.549,0,0,0,3.348.87,13.1,13.1,0,0,0,5.044-1.044,15.469,15.469,0,0,1-.522-3.914,17.691,17.691,0,0,1,4.262-11.7,27.831,27.831,0,0,1,11.132-7.871A38.544,38.544,0,0,1,127.442-150.184Zm111.019-4a4.187,4.187,0,0,1,2.957,1.044,3.713,3.713,0,0,1,1.131,2.87,6.424,6.424,0,0,1-.261,1.652l-7.653,30.266a68.891,68.891,0,0,1,9.871-8.654q4.566-3.174,7.175-3.174a7.012,7.012,0,0,1,3.3,1,9.252,9.252,0,0,1,3.044,2.653,5.661,5.661,0,0,1,1.218,3.392,4.886,4.886,0,0,1-.174,1.131l-6.61,26.265a1.936,1.936,0,0,0-.174.87q0,1.478,1.913,1.478,3.044,0,7.914-3.218a36.967,36.967,0,0,1-7.132,6.349,11.958,11.958,0,0,1-6.349,2.348,4.187,4.187,0,0,1-2.957-1.044,3.713,3.713,0,0,1-1.131-2.87,5.753,5.753,0,0,1,.261-1.652l7.305-29.222q-4.088.522-9.393,3.957A50.935,50.935,0,0,0,232.634-110l-4.7,18.785q-.783,3.3-4.435,3.3-2.87,0-2.87-2.174a7.637,7.637,0,0,1,.174-1.131l13.741-55.139a3.048,3.048,0,0,0,.174-.957q0-1.392-1.826-1.392-3.044,0-7.914,3.218a36.966,36.966,0,0,1,7.132-6.349A11.958,11.958,0,0,1,238.461-154.185Z" transform="translate(-81.174 154.185)" fill="#ff5347" clip-rule="evenodd"/>
    </clipPath>
  </defs>
  <g id="Component_41_2" data-name="Component 41 – 2" clip-path="url(#clip-path)">
    <g id="Group_224" data-name="Group 224" transform="translate(-81.174 154.185)">
      <g id="Group_220" data-name="Group 220" transform="translate(81.174 -154.185)" clip-path="url(#clip-path-2)">
        <g id="Group_218" data-name="Group 218" transform="translate(-51.157 -18.79)">
          <path id="Path_235" data-name="Path 235" d="M.047.457H418.511v115.96H.047Z" transform="translate(-0.047 -0.457)" fill="#ff5347"/>
        </g>
        <g id="Group_219" data-name="Group 219" transform="translate(-51.157 -18.79)">
          <path id="Path_236" data-name="Path 236" d="M.047.457H418.511v115.96H.047Z" transform="translate(-0.047 -0.457)" fill="#ff5347"/>
        </g>
      </g>
      <g id="Group_223" data-name="Group 223" transform="translate(220.146 -86.635)">
        <text id="Explore_your_vacation" data-name="Explore your vacation" transform="translate(0 17)" fill="#ff5347" font-size="17" font-family="ArchitectsDaughter-Regular, Architects Daughter"><tspan x="0" y="0">Explore your vacation</tspan></text>
      </g>
    </g>
    <g id="air-transport" transform="translate(99.002 -63.857) rotate(-3)">
      <path id="Path_449" data-name="Path 449" d="M28.114,141.251c0,4.864-23.446,10.232-25.221,10.232-1,0-2.125-.229-2.125-1.147,0-.307.354-.75.975-1.284h0L.1,146.128a.752.752,0,0,1,.376-1.066l.283-.113a1.879,1.879,0,0,1,1.578.084l2.988,1.582c1.163-.69,2.483-1.412,3.874-2.124l-5.822-3.777a.752.752,0,0,1,.009-1.267l.476-.3a3.382,3.382,0,0,1,2.662-.406l9.686,2.555c3.02-1.2,5.751-2.017,7.367-2.017.432,0,.864.011,1.281.041l-2.925,1.321-.07.984,4.515-2.076C27.456,139.806,28.114,140.288,28.114,141.251Zm-11.784,8.4,3.613,4.1a.752.752,0,0,0,.881.185l.484-.225A2.255,2.255,0,0,0,22.6,151.4l-.452-3.867a.376.376,0,0,0-.5-.311l-5.159,1.817A.376.376,0,0,0,16.331,149.646Z" transform="translate(0)" fill="#ff5347"/>
    </g>
  </g>
</svg>
